<svg width="10px" height="12px" viewBox="0 0 10 12" version="1.1" xmlns="http://www.w3.org/2000/svg" xmlns:xlink="http://www.w3.org/1999/xlink"><g id="Page-1" stroke="none" stroke-width="1" fill="none" fill-rule="evenodd"><g id="Sign-Up" transform="translate(-60.000000, -133.000000)" fill="#A8B6C8"><g id="UsernameInput" transform="translate(45.000000, 114.000000)"><path d="M25,28.9296875 C25,29.4973987 24.8372412,29.984373 24.5117188,30.390625 C24.1861963,30.796877 23.7942731,31 23.3359375,31 L16.6640625,31 C16.2057269,31 15.8138037,30.796877 15.4882812,30.390625 C15.1627588,29.984373 15,29.4973987 15,28.9296875 C15,28.486977 15.0221352,28.0690124 15.0664062,27.6757812 C15.1106773,27.2825501 15.1927077,26.8867207 15.3125,26.4882812 C15.4322923,26.0898418 15.5846345,25.7486993 15.7695312,25.4648438 C15.954428,25.1809882 16.1992172,24.9492196 16.5039062,24.7695312 C16.8085953,24.5898429 17.1588522,24.5 17.5546875,24.5 C18.2369826,25.16667 19.0520786,25.5 20,25.5 C20.9479214,25.5 21.7630174,25.16667 22.4453125,24.5 C22.8411478,24.5 23.1914047,24.5898429 23.4960938,24.7695312 C23.8007828,24.9492196 24.045572,25.1809882 24.2304688,25.4648438 C24.4153655,25.7486993 24.5677077,26.0898418 24.6875,26.4882812 C24.8072923,26.8867207 24.8893227,27.2825501 24.9335938,27.6757812 C24.9778648,28.0690124 25,28.486977 25,28.9296875 Z M23,22 C23,22.8281291 22.7070342,23.5351533 22.1210938,24.1210938 C21.5351533,24.7070342 20.8281291,25 20,25 C19.1718709,25 18.4648467,24.7070342 17.8789062,24.1210938 C17.2929658,23.5351533 17,22.8281291 17,22 C17,21.1718709 17.2929658,20.4648467 17.8789062,19.8789062 C18.4648467,19.2929658 19.1718709,19 20,19 C20.8281291,19 21.5351533,19.2929658 22.1210938,19.8789062 C22.7070342,20.4648467 23,21.1718709 23,22 Z" id=""></path></g></g></g></svg>